
<svg width="100" height="100" viewBox="0 0 100 100" fill="none" xmlns="http://www.w3.org/2000/svg">
  <path d="M86.9287 21.1675C78.7397 14.1335 70.7347 8.5651 56.9282 12.2562C52.7233 13.3388 48.2389 14.8301 44.2103 18.7584C35.1091 27.6567 29.2529 35.4829 22.4845 46.6767C16.1099 57.1368 10.5191 65.5174 28.3237 82.3405C37.3786 90.9166 48.4944 92.9639 66.6151 83.4905C75.1648 78.9062 82.8828 77.5871 91.9046 65.3507C101.3 52.6346 98.5312 31.9439 86.9287 21.1675Z" fill="white"/>
  <path d="M77.8975 34.9832L91.6985 49.4456C91.2339 43.9667 89.1967 39.4245 86.9458 34.9832H77.8975Z" fill="white"/>
  <path d="M7.25 50.2453C18.9078 43.066 31.0565 28.4649 36.9625 23.0708C34.9424 23.3369 32.9224 23.7527 31.1032 25.439C23.7777 32.3063 18.3093 38.5001 13.156 45.7679C11.3368 48.2278 9.51759 51.8722 9.98222 57.5175L7.25 50.2453Z" fill="white"/>
</svg>
